PathFileType	4	(X/Y/Z)	Patient4_TMGait_0pt3_02_left_10.trc.trc
DataRate	CameraRate	NumFrames	NumMarkers	Units	OrigDataRate	OrigDataStartFrame	OrigNumFrames
50.359712230216	50.359712230216	5	33	mm	50.359712230216	106	       141
Frame#	Time	Sacral			L.Shoulder			Chest			R.Shoulder			Neck			R.ASIS			L.ASIS			R.Thigh.Superior			R.Thigh.Lateral			R.Thigh.Inferior			R.Patella			L.Thigh.Superior			L.Thigh.Lateral			L.Thigh.Inferior			L.Patella			L.Shank.Superior			L.Shank.Lateral			L.Shank.Inferior			R.Shank.Superior			R.Shank.Lateral			R.Shank.Inferior			R.Heel			R.Midfoot.Superior			R.Midfoot.Lateral			R.Toe			L.Heel			L.Midfoot.Lateral			L.Midfoot.Superior			L.Toe			L.Elbow			L.Wrist			R.Elbow			R.Wrist			
		X1	Y1	Z1	X2	Y2	Z2	X3	Y3	Z3	X4	Y4	Z4	X5	Y5	Z5	X6	Y6	Z6	X7	Y7	Z7	X8	Y8	Z8	X9	Y9	Z9	X10	Y10	Z10	X11	Y11	Z11	X12	Y12	Z12	X13	Y13	Z13	X14	Y14	Z14	X15	Y15	Z15	X16	Y16	Z16	X17	Y17	Z17	X18	Y18	Z18	X19	Y19	Z19	X20	Y20	Z20	X21	Y21	Z21	X22	Y22	Z22	X23	Y23	Z23	X24	Y24	Z24	X25	Y25	Z25	X26	Y26	Z26	X27	Y27	Z27	X28	Y28	Z28	X29	Y29	Z29	X30	Y30	Z30	X31	Y31	Z31	X32	Y32	Z32	X33	Y33	Z33	

106	21.495000000000	727.198014151301	971.453405300193	572.512971033725	907.047430649896	1409.214458792912	401.720142456732	1000.685984180169	1339.891627355189	567.771503171965	907.714020530733	1407.823114461216	738.701524934150	883.009600449076	1470.229621006653	561.880862316392	960.041651346743	921.779516201090	695.010330687935	950.379172099025	940.974453885807	420.476786877152	1022.256115418943	726.873914749795	650.097733797751	953.234116482633	603.820962876182	696.843357073114	1036.007182393418	565.460463992147	613.016691655182	1043.411088333856	465.853960032112	613.847181599970	1045.081603837269	767.691544810352	452.339460163014	1017.518037797875	639.611561659059	368.548886936025	1123.309758911108	586.309199920777	439.253526437796	1142.625297859346	495.247762820052	426.183102673174	1073.871970196395	428.264733005245	411.361824368105	929.795637426187	392.235944893606	363.971754454815	917.531041782703	259.244759864181	406.911994320690	992.190294136979	378.626240533703	611.033822775555	898.616318501651	287.538657784401	665.600357168589	916.660182218414	192.581335642337	594.935150664714	752.677739339205	44.883571222993	557.464620210900	925.567804511275	96.530848721695	596.109697828746	834.907156947821	37.854158527878	632.494795617724	1043.274026767507	41.075771635242	625.103829781406	728.873951019872	191.812171399956	447.199883867603	781.684663423997	156.643115719367	358.981642099055	887.468941469384	161.740566788918	375.860819970520	962.478206059451	54.228709179734	329.492961776865	907.179463236812	1049.377737245160	298.311834820240	995.317023110488	806.724901808891	308.876714116023	936.111507935025	1054.668505749130	853.058105028331	1124.810665778930	875.564418891528	865.912335637339	
107	21.514857142857	726.070948530724	969.630056989584	575.869173712387	902.717685765106	1406.600744471994	401.579484919008	999.424141093209	1338.245330496196	566.210326718369	909.598124847884	1406.865843159142	738.604841173903	881.698983142463	1468.521044088732	561.741415269689	960.530287871209	919.946969501927	695.141830119280	947.163503861507	939.929054464028	420.882971081706	1022.151019076103	725.141425560833	648.719727461625	953.973892110143	601.828059762260	696.002016472658	1035.421139101226	563.793362584571	610.719761250252	1042.696093836661	463.785005706093	611.032487389587	1043.532415272119	768.011960998374	452.658999207438	1016.930401354921	639.526327923228	369.456588178762	1122.999630349120	587.331522633248	440.208728557856	1143.951764178137	497.328343280159	427.074535275813	1078.158064483043	428.860251170111	411.645335694511	936.348480969210	386.063893272031	364.043044098850	931.198229941583	252.341451539781	406.123249887481	990.531205393944	376.769508591068	608.883625433322	896.728921217888	286.482155822238	664.518198536812	912.621339918238	191.449216243991	593.641272451665	746.815590008713	45.043001373036	557.398604392354	919.494682514090	96.159566104091	595.408775403327	829.029440812213	37.921387324975	632.402017847479	1037.421577497684	40.674892007802	625.079662155185	746.714889268425	174.100321419165	446.159723176754	801.358316111136	143.181947256144	357.527903723220	906.553882084800	154.295309151437	374.466271817817	987.669333343242	52.229283227415	326.878184780747	891.686214754748	1046.703831392301	299.788584432505	958.855536172760	796.281876906936	306.860298317164	948.346031406769	1054.869438080674	853.360753234839	1150.251111446407	891.757698397661	859.629820368698	
108	21.534714285714	725.082891853382	968.709682650592	579.227178091859	898.331098051500	1404.753026068467	401.370838091714	998.345868943247	1337.277666145147	564.320072692846	912.015346132024	1406.671923951290	738.236685728442	880.640203637080	1467.519185148486	561.460411195784	961.111659395069	918.632087399410	694.920172139847	943.667153759413	939.488088233572	421.064880349018	1021.520486991605	723.679155270050	647.095196909802	953.880519532178	600.322270589254	695.059256036842	1033.805615132037	562.385072013157	608.315995412713	1040.747671522800	462.145021537202	608.157338663770	1041.376145028757	768.515732498372	452.814130797494	1015.380074471130	639.705074416577	370.199159828309	1121.344321462717	588.223266846088	441.082221292761	1143.804201174007	499.488367164185	427.906879923536	1081.376431868514	429.638128936942	411.815887561677	942.662625017198	379.339809200826	363.640438763355	945.331074886642	245.236239948059	404.995463310670	987.879794096391	375.353890505742	606.755914692788	894.138938106463	285.652309886919	663.492616985896	908.181626615935	190.580840262345	592.448157457883	740.916040073235	45.208711991211	557.402857374348	913.382814733341	95.798756628258	594.745335073365	823.136971169467	37.977280848896	632.360363259430	1031.544597561223	40.325993067143	625.038458282427	766.022570285500	155.670820357861	444.410359239668	822.610884707043	129.025625208837	355.640742666475	926.787630833486	146.488356573800	372.859561981402	1014.156057334790	50.291420372841	324.648935720778	875.392110446512	1045.550806449474	300.561928795294	923.484305515730	789.805676907214	304.453790208322	960.361953051800	1056.273729105884	853.451428574072	1174.549510487500	911.154549072871	852.099904819069	
109	21.554571428571	724.241565963041	968.770579903625	582.574978913688	893.928609828807	1403.776376115979	401.095978584755	997.450903487514	1337.058615328569	562.099865695045	914.944458933072	1407.299511945842	737.568769785011	879.836529534320	1467.296205585325	561.043375232254	961.760196437404	917.923817166598	694.366946519110	939.973404632252	939.711064105997	421.020675346980	1020.313415673442	722.550354845936	645.356123535206	952.857644838833	599.385348069502	694.141617929579	1031.117048211020	561.292060958255	606.004114609671	1037.511962259350	460.995292034502	605.466193559782	1038.624300245159	769.249373317653	452.785630966680	1012.829181432991	640.205187473606	370.709046924843	1118.386304879721	589.041634202872	441.734691100812	1142.212762533918	501.780654147903	428.563127538095	1083.482688666377	430.693690863292	411.843998721586	948.729151230756	372.376296389170	362.740630051304	959.688212752895	238.366416251999	403.635738022219	984.181767732023	374.440626142566	604.830353494432	890.754662543642	285.099807336500	662.634257845872	903.307074606729	190.026462865561	591.453300433247	734.976766842851	45.391849335787	557.484273294005	907.265069161362	95.491275906149	594.199488649959	817.228048021135	38.024156474298	632.375610006624	1025.639443846080	40.036557301110	624.983726835291	786.486982108759	137.328211991691	442.067803289702	845.137448541767	114.835646783830	353.491145394904	947.830424093341	138.830955343835	371.227439193065	1041.435203716144	48.793550625802	323.142335382061	858.406695784426	1046.052227486255	300.687481306465	889.750195970954	787.073879663732	301.825834521747	972.207463580323	1058.911499653675	853.313473320687	1197.279805739727	933.560848727171	843.465987810171	
110	21.574428571429	723.546696834011	969.820560872144	585.879712502872	889.567696938484	1403.705882480038	400.751532148360	996.730824534338	1337.596416460070	559.565822108029	918.325266306290	1408.743493957899	736.578734655957	879.277871379281	1467.861798176034	560.490247905605	962.442018659832	917.856395119844	693.516126646277	936.187913529481	940.611470386972	420.752689668778	1018.507614758638	721.788199025838	643.616073484380	950.859638062972	599.056195148276	693.352402952477	1027.359238952731	560.545016859615	603.946162979916	1032.995782703586	460.364557668682	603.154534598328	1035.314237804160	770.216179236009	452.536715841660	1009.260581518410	641.032669535797	370.918588231272	1114.210854346586	589.815442691878	442.016713796120	1139.247971649134	504.225568442803	428.926049156408	1084.454249910606	432.082102034977	411.700340647898	954.502673759486	365.474395231271	361.346651328719	973.965906860299	232.117615246424	402.153045159455	979.437880055987	374.057155526460	603.246687169869	886.535613202896	284.852264468107	662.026246043743	897.990358242521	189.811004620842	590.723012237171	728.999210843701	45.600982180897	557.641485401177	901.173457604463	95.274378863149	593.838288518136	811.302039794710	38.064993835631	632.448092444247	1019.704936678270	39.807736946625	624.920273247543	807.667300706584	119.820030348111	439.276033569999	868.500607836534	101.229397058585	351.256363347022	969.246909501455	131.782521695390	369.742947016087	1068.917583507377	48.049538846435	322.627282730801	840.953704836212	1048.232946305324	300.280740780302	858.058891180667	787.673948102173	299.149127931073	983.937310768550	1062.747392580879	852.904871355236	1218.070865505232	958.599675258107	833.900241666388	
